<?xml version="1.0" encoding="iso-8859-1"?>
<!-- Generator: Adobe Illustrator 17.1.0, SVG Export Plug-In . SVG Version: 6.00 Build 0)  -->
<!DOCTYPE svg PUBLIC "-//W3C//DTD SVG 1.1//EN" "http://www.w3.org/Graphics/SVG/1.1/DTD/svg11.dtd">
<svg version="1.1" id="Capa_1" xmlns="http://www.w3.org/2000/svg" xmlns:xlink="http://www.w3.org/1999/xlink" x="0px" y="0px"
	 viewBox="0 0 392.235 392.235" style="enable-background:new 0 0 392.235 392.235;" xml:space="preserve">
<path d="M276.728,106.969c-1.583-19.475-10.118-44.015-22.679-64.488C237.242,15.087,216.667,0,196.118,0
	s-41.124,15.087-57.931,42.481c-12.561,20.473-21.096,45.013-22.679,64.488c-25.823,23.64-42.168,58.409-42.168,97.111v173.156
	c0,8.284,6.716,15,15,15s15-6.716,15-15V204.08c0-17.55,4.32-34.043,11.878-48.345v83.949c0,40.126,36.291,72.771,80.899,72.771
	s80.899-32.645,80.899-72.771v-83.949c7.558,14.302,11.878,30.795,11.878,48.345v173.156c0,8.284,6.716,15,15,15s15-6.716,15-15
	V204.08C318.895,165.377,302.55,130.609,276.728,106.969z M244.774,230.729c0,8.284-6.716,15-15,15s-15-6.716-15-15V114.312
	c0-8.284,6.716-15,15-15s15,6.716,15,15V230.729z"/>
<g>
</g>
<g>
</g>
<g>
</g>
<g>
</g>
<g>
</g>
<g>
</g>
<g>
</g>
<g>
</g>
<g>
</g>
<g>
</g>
<g>
</g>
<g>
</g>
<g>
</g>
<g>
</g>
<g>
</g>
</svg>
