<svg width="60" height="60" viewBox="0 0 60 60" fill="none" xmlns="http://www.w3.org/2000/svg">
<path d="M30 0C18.3689 0 8.90625 9.46266 8.90625 21.0938C8.90625 25.0235 9.99481 28.8586 12.055 32.1858L28.7993 59.169C29.12 59.6859 29.6851 60 30.2929 60C30.2975 60 30.3021 60 30.3068 60C30.9198 59.9952 31.4861 59.6714 31.8009 59.1455L48.1185 31.9008C50.065 28.6439 51.0938 24.9069 51.0938 21.0938C51.0938 9.46266 41.6311 0 30 0ZM45.1015 30.0959L30.2663 54.8655L15.043 30.3335C13.3282 27.5641 12.3984 24.3691 12.3984 21.0938C12.3984 11.4012 20.3074 3.49219 30 3.49219C39.6926 3.49219 47.5898 11.4012 47.5898 21.0938C47.5898 24.272 46.7214 27.3853 45.1015 30.0959Z" fill="#38B6FF"/>
<path d="M30 10.5469C24.1845 10.5469 19.4531 15.2782 19.4531 21.0938C19.4531 26.8721 24.1075 31.6406 30 31.6406C35.9652 31.6406 40.5469 26.8086 40.5469 21.0938C40.5469 15.2782 35.8155 10.5469 30 10.5469ZM30 28.1484C26.1027 28.1484 22.9453 24.9805 22.9453 21.0938C22.9453 17.2167 26.123 14.0391 30 14.0391C33.877 14.0391 37.043 17.2167 37.043 21.0938C37.043 24.9238 33.9591 28.1484 30 28.1484Z" fill="#38B6FF"/>
</svg>
